<svg width="111" height="33" viewBox="0 0 111 33" fill="none" xmlns="http://www.w3.org/2000/svg">
<path d="M23.07 25.79H24.78V26H18.39V25.79H20.1V6.5L12.69 26H12.36L4.14 7.64V21.47C4.14 22.45 4.2 23.23 4.32 23.81C4.46 24.37 4.68 24.8 4.98 25.1C5.28 25.4 5.67 25.59 6.15 25.67C6.63 25.75 7.21 25.79 7.89 25.79V26H0.06V25.79C0.76 25.79 1.34 25.75 1.8 25.67C2.28 25.59 2.67 25.4 2.97 25.1C3.27 24.8 3.48 24.37 3.6 23.81C3.74 23.23 3.81 22.45 3.81 21.47V9.53C3.81 8.55 3.78 7.78 3.72 7.22C3.68 6.64 3.55 6.2 3.33 5.9C3.13 5.6 2.83 5.41 2.43 5.33C2.05 5.25 1.51 5.21 0.81 5.21V5H6.27L13.8 22.22L20.37 5H26.04V5.21C25.36 5.21 24.82 5.25 24.42 5.33C24.02 5.41 23.72 5.6 23.52 5.9C23.32 6.2 23.19 6.64 23.13 7.22C23.09 7.78 23.07 8.55 23.07 9.53V25.79ZM43.3711 24.56C42.8311 25.12 42.2611 25.53 41.6611 25.79C41.0611 26.05 40.4911 26.18 39.9511 26.18C39.2711 26.18 38.6911 25.97 38.2111 25.55C37.7511 25.13 37.5211 24.54 37.5211 23.78V21.5C37.3411 22.32 37.0611 23.04 36.6811 23.66C36.3011 24.26 35.8511 24.76 35.3311 25.16C34.8111 25.54 34.2411 25.82 33.6211 26C33.0211 26.2 32.4111 26.3 31.7911 26.3C31.1311 26.3 30.4911 26.2 29.8711 26C29.2511 25.78 28.7011 25.47 28.2211 25.07C27.7411 24.65 27.3511 24.15 27.0511 23.57C26.7711 22.97 26.6311 22.29 26.6311 21.53C26.6311 20.67 26.7811 19.94 27.0811 19.34C27.4011 18.74 27.7911 18.23 28.2511 17.81C28.7111 17.39 29.2111 17.03 29.7511 16.73C30.3111 16.43 30.8211 16.16 31.2811 15.92C31.7411 15.66 32.1211 15.4 32.4211 15.14C32.7411 14.86 32.9011 14.54 32.9011 14.18C32.9011 13.66 32.7411 13.26 32.4211 12.98C32.1211 12.68 31.7411 12.53 31.2811 12.53C30.8411 12.53 30.3911 12.68 29.9311 12.98L29.6611 13.19C29.2811 13.43 28.9311 13.55 28.6111 13.55C28.2911 13.55 28.0211 13.45 27.8011 13.25C27.6011 13.03 27.4911 12.78 27.4711 12.5C27.4511 12.2 27.5411 11.91 27.7411 11.63C27.9411 11.33 28.2811 11.1 28.7611 10.94C29.7811 10.6 30.8311 10.29 31.9111 10.01C32.9911 9.73 34.0211 9.59 35.0011 9.59C35.7411 9.59 36.4311 9.69 37.0711 9.89C37.7311 10.09 38.3011 10.44 38.7811 10.94C39.2611 11.42 39.6311 12.07 39.8911 12.89C40.1711 13.69 40.3111 14.69 40.3111 15.89V22.85C40.3111 23.61 40.4311 24.21 40.6711 24.65C40.9311 25.07 41.2711 25.28 41.6911 25.28C42.1911 25.28 42.7411 25.01 43.3411 24.47L43.3711 24.56ZM37.5211 13.28C37.5411 12.06 37.3111 11.19 36.8311 10.67C36.3711 10.13 35.7911 9.86 35.0911 9.86C34.5711 9.86 34.0111 10 33.4111 10.28C32.8311 10.54 32.2611 10.9 31.7011 11.36C31.4811 11.52 31.3811 11.71 31.4011 11.93C31.4211 12.13 31.5711 12.26 31.8511 12.32C32.2511 12.42 32.5811 12.64 32.8411 12.98C33.1011 13.3 33.2311 13.73 33.2311 14.27C33.2311 14.79 33.0311 15.25 32.6311 15.65C32.2511 16.03 31.8211 16.44 31.3411 16.88C30.8611 17.32 30.4211 17.83 30.0211 18.41C29.6411 18.97 29.4511 19.7 29.4511 20.6C29.4511 21.3 29.5511 21.91 29.7511 22.43C29.9511 22.95 30.2211 23.39 30.5611 23.75C30.9211 24.09 31.3211 24.35 31.7611 24.53C32.2011 24.69 32.6611 24.77 33.1411 24.77C33.6811 24.77 34.2111 24.66 34.7311 24.44C35.2511 24.22 35.7111 23.9 36.1111 23.48C36.5311 23.06 36.8711 22.53 37.1311 21.89C37.3911 21.25 37.5211 20.51 37.5211 19.67V13.28ZM51.3415 24.56C50.8015 25.12 50.2315 25.53 49.6315 25.79C49.0315 26.05 48.4615 26.18 47.9215 26.18C47.2415 26.18 46.6615 25.97 46.1815 25.55C45.7215 25.13 45.4915 24.54 45.4915 23.78V2.42C45.4915 2.14 45.4415 1.92 45.3415 1.76C45.2415 1.6 45.1015 1.49 44.9215 1.43C44.7615 1.35 44.5715 1.31 44.3515 1.31C44.1515 1.31 43.9315 1.32 43.6915 1.34V1.19L48.2815 0.679999V22.85C48.2815 23.61 48.4015 24.21 48.6415 24.65C48.9015 25.07 49.2415 25.28 49.6615 25.28C50.1615 25.28 50.7115 25.01 51.3115 24.47L51.3415 24.56ZM59.3173 24.56C58.7773 25.12 58.2073 25.53 57.6073 25.79C57.0073 26.05 56.4373 26.18 55.8973 26.18C55.2173 26.18 54.6373 25.97 54.1573 25.55C53.6973 25.13 53.4673 24.54 53.4673 23.78V2.42C53.4673 2.14 53.4173 1.92 53.3173 1.76C53.2173 1.6 53.0773 1.49 52.8973 1.43C52.7373 1.35 52.5473 1.31 52.3273 1.31C52.1273 1.31 51.9073 1.32 51.6673 1.34V1.19L56.2573 0.679999V22.85C56.2573 23.61 56.3773 24.21 56.6173 24.65C56.8773 25.07 57.2173 25.28 57.6373 25.28C58.1373 25.28 58.6873 25.01 59.2873 24.47L59.3173 24.56ZM70.5326 10.13C70.5326 9.61 70.6726 9.23 70.9526 8.99C71.2326 8.73 71.5426 8.6 71.8826 8.6C72.1226 8.6 72.3426 8.66 72.5426 8.78C72.7626 8.9 72.9326 9.08 73.0526 9.32C73.1726 9.54 73.2326 9.83 73.2326 10.19C73.2326 10.53 73.1426 10.94 72.9626 11.42L67.3226 25.34C67.0226 26.1 66.6526 26.92 66.2126 27.8C65.7726 28.7 65.2126 29.53 64.5326 30.29C63.8526 31.05 63.0326 31.68 62.0726 32.18C61.1126 32.68 59.9626 32.93 58.6226 32.93C57.8426 32.93 57.2926 32.76 56.9726 32.42C56.6326 32.08 56.4826 31.71 56.5226 31.31C56.5626 30.93 56.7726 30.6 57.1526 30.32C57.5126 30.04 58.0026 29.96 58.6226 30.08C59.5226 30.26 60.3226 30.35 61.0226 30.35C61.9226 30.35 62.6726 30.22 63.2726 29.96C63.8926 29.72 64.4126 29.39 64.8326 28.97C65.2526 28.57 65.5926 28.12 65.8526 27.62C66.1326 27.12 66.3726 26.62 66.5726 26.12L60.5126 11.3C60.3926 11 60.2726 10.77 60.1526 10.61C60.0326 10.45 59.9026 10.34 59.7626 10.28C59.6426 10.2 59.4926 10.16 59.3126 10.16C59.1326 10.16 58.9226 10.17 58.6826 10.19V10.04L62.8826 9.65L68.0726 22.34C68.5326 21.2 68.9426 20.2 69.3026 19.34C69.6626 18.48 70.0326 17.57 70.4126 16.61C70.6726 15.95 70.8226 15.33 70.8626 14.75C70.9026 14.15 70.8926 13.59 70.8326 13.07C70.7926 12.53 70.7326 12.02 70.6526 11.54C70.5726 11.04 70.5326 10.57 70.5326 10.13ZM83.3789 1.43C83.9789 1.43 84.4289 1.56 84.7289 1.82C85.0289 2.08 85.1889 2.37 85.2089 2.69C85.2489 3.01 85.1489 3.3 84.9089 3.56C84.6689 3.82 84.3089 3.95 83.8289 3.95C83.5689 3.95 83.2689 3.9 82.9289 3.8C82.5889 3.7 82.2189 3.52 81.8189 3.26C81.1389 2.84 80.5789 2.63 80.1389 2.63C79.6389 2.63 79.2889 2.88 79.0889 3.38C78.8889 3.86 78.7889 4.55 78.7889 5.45V9.71H82.7789V9.98H78.7889V25.76H80.6189V26H74.2289V25.76H76.0289V9.98H74.3189V9.71H76.0289V8.42C76.0289 7.46 76.1989 6.56 76.5389 5.72C76.8989 4.88 77.3989 4.14 78.0389 3.5C78.6989 2.86 79.4789 2.36 80.3789 2C81.2789 1.62 82.2789 1.43 83.3789 1.43ZM96.9717 19.79C96.7517 20.87 96.3917 21.82 95.8917 22.64C95.3917 23.46 94.8017 24.14 94.1217 24.68C93.4617 25.22 92.7317 25.63 91.9317 25.91C91.1317 26.17 90.3217 26.3 89.5017 26.3C88.6017 26.3 87.7217 26.13 86.8617 25.79C86.0017 25.45 85.2317 24.95 84.5517 24.29C83.8917 23.61 83.3517 22.76 82.9317 21.74C82.5317 20.72 82.3317 19.53 82.3317 18.17C82.3317 16.59 82.5517 15.26 82.9917 14.18C83.4317 13.08 84.0017 12.2 84.7017 11.54C85.4217 10.86 86.2217 10.37 87.1017 10.07C87.9817 9.77 88.8517 9.62 89.7117 9.62C90.4117 9.62 91.0817 9.71 91.7217 9.89C92.3617 10.05 92.9217 10.28 93.4017 10.58C93.9017 10.88 94.2917 11.24 94.5717 11.66C94.8717 12.08 95.0217 12.53 95.0217 13.01C95.0217 13.35 94.9317 13.61 94.7517 13.79C94.5917 13.95 94.3817 14.07 94.1217 14.15C93.8617 14.21 93.5917 14.25 93.3117 14.27C93.0517 14.27 92.8117 14.28 92.5917 14.3L83.9817 14.27C83.9017 14.67 83.8617 15.12 83.8617 15.62C83.8617 17.08 84.0517 18.35 84.4317 19.43C84.8117 20.49 85.3117 21.37 85.9317 22.07C86.5717 22.75 87.2917 23.26 88.0917 23.6C88.9117 23.92 89.7417 24.08 90.5817 24.08C91.2217 24.08 91.8617 23.99 92.5017 23.81C93.1417 23.61 93.7317 23.33 94.2717 22.97C94.8317 22.61 95.3317 22.16 95.7717 21.62C96.2317 21.08 96.6017 20.47 96.8817 19.79H96.9717ZM92.8317 13.04C92.8317 12.56 92.7317 12.13 92.5317 11.75C92.3517 11.37 92.0917 11.05 91.7517 10.79C91.4317 10.51 91.0617 10.3 90.6417 10.16C90.2217 10.02 89.7717 9.95 89.2917 9.95C88.8117 9.95 88.3117 10.03 87.7917 10.19C87.2917 10.33 86.8117 10.57 86.3517 10.91C85.8917 11.23 85.4617 11.64 85.0617 12.14C84.6617 12.62 84.3317 13.21 84.0717 13.91H91.7817C92.2217 13.91 92.5017 13.85 92.6217 13.73C92.7617 13.59 92.8317 13.36 92.8317 13.04ZM100.273 12.65C100.273 13.31 100.523 13.87 101.023 14.33C101.523 14.77 102.143 15.17 102.883 15.53C103.623 15.87 104.423 16.2 105.283 16.52C106.163 16.82 106.973 17.17 107.713 17.57C108.453 17.95 109.073 18.41 109.573 18.95C110.073 19.47 110.323 20.12 110.323 20.9C110.323 21.86 110.163 22.69 109.843 23.39C109.543 24.07 109.133 24.63 108.613 25.07C108.093 25.51 107.483 25.83 106.783 26.03C106.103 26.25 105.383 26.36 104.623 26.36C103.743 26.36 102.853 26.24 101.953 26C101.073 25.74 100.253 25.38 99.4929 24.92C99.1329 24.7 98.8929 24.44 98.7729 24.14C98.6529 23.84 98.6229 23.56 98.6829 23.3C98.7429 23.02 98.8829 22.78 99.1029 22.58C99.3229 22.38 99.5929 22.28 99.9129 22.28C100.253 22.28 100.623 22.41 101.023 22.67C102.003 23.33 102.983 23.82 103.963 24.14C104.943 24.46 105.853 24.62 106.693 24.62C107.593 24.62 108.323 24.44 108.883 24.08C109.463 23.72 109.763 23.22 109.783 22.58C109.803 22.06 109.553 21.62 109.033 21.26C108.533 20.88 107.893 20.53 107.113 20.21C106.333 19.89 105.493 19.58 104.593 19.28C103.693 18.96 102.853 18.59 102.073 18.17C101.293 17.75 100.643 17.26 100.123 16.7C99.6029 16.14 99.3429 15.46 99.3429 14.66C99.3429 13.68 99.5029 12.87 99.8229 12.23C100.143 11.57 100.553 11.05 101.053 10.67C101.573 10.27 102.153 9.99 102.793 9.83C103.453 9.67 104.113 9.59 104.773 9.59C105.613 9.59 106.413 9.69 107.173 9.89C107.933 10.07 108.543 10.3 109.003 10.58C109.323 10.76 109.533 10.99 109.633 11.27C109.753 11.55 109.783 11.82 109.723 12.08C109.663 12.34 109.523 12.57 109.303 12.77C109.103 12.95 108.843 13.04 108.523 13.04C108.243 13.04 107.933 12.95 107.593 12.77C107.113 12.49 106.663 12.22 106.243 11.96C105.843 11.7 105.433 11.48 105.013 11.3C104.613 11.1 104.183 10.94 103.723 10.82C103.283 10.7 102.793 10.64 102.253 10.64C101.613 10.64 101.123 10.81 100.783 11.15C100.443 11.49 100.273 11.99 100.273 12.65Z" fill="white"/>
</svg>
