<svg width="40" height="40" viewBox="0 0 40 40" fill="none" xmlns="http://www.w3.org/2000/svg">
<g id="volume_up_FILL1_wght400_GRAD-25_opsz40 1">
<path id="Vector" d="M23.306 34.0767V31.3545C25.843 30.6045 27.9079 29.1832 29.5004 27.0906C31.0931 24.998 31.8894 22.623 31.8894 19.9656C31.8894 17.3175 31.0977 14.9424 29.5144 12.8406C27.931 10.7387 25.8616 9.31745 23.306 8.5767V5.85449C26.6162 6.63227 29.3141 8.33251 31.3997 10.9552C33.4854 13.5779 34.5282 16.5813 34.5282 19.9656C34.5282 23.3591 33.4854 26.3672 31.3997 28.9899C29.3141 31.6126 26.6162 33.3082 23.306 34.0767ZM5.47266 24.8337V15.167H12.0004L20.1116 7.05587V32.9448L12.0004 24.8337H5.47266ZM22.7504 26.7781V13.1948C24.1995 13.704 25.3581 14.5802 26.2262 15.8232C27.0942 17.0663 27.5282 18.4587 27.5282 20.0003C27.5282 21.5281 27.0896 22.9124 26.2122 24.1531C25.3349 25.3939 24.181 26.2689 22.7504 26.7781Z" fill="white"/>
</g>
</svg>
